<svg width="43" height="32" viewBox="0 0 43 32" fill="none" xmlns="http://www.w3.org/2000/svg">
<path fill-rule="evenodd" clip-rule="evenodd" d="M28.6714 2.99533L22.8768 12.5066H0.40918L9.91935 28.2515C10.4754 29.172 11.259 29.9331 12.1945 30.4612C13.1299 30.9894 14.1855 31.2668 15.2592 31.2665H20.6972C21.7786 31.2664 22.8414 30.9846 23.7815 30.4488C24.7215 29.9131 25.5064 29.1417 26.0594 28.2104L35.3805 12.5066L42.9999 6.80606e-10H33.9979C32.9283 -1.58107e-05 31.8767 0.275459 30.9439 0.799984C30.0112 1.32451 29.2286 2.08048 28.6714 2.99533Z" fill="white"/>
<path fill-rule="evenodd" clip-rule="evenodd" d="M28.6714 28.2713L22.8768 18.76H0.40918L9.91935 3.01509C10.4754 2.09465 11.259 1.33355 12.1945 0.805378C13.1299 0.277208 14.1855 -0.000152588 15.2592 0.000112534H20.6972C21.7786 0.000247955 22.8414 0.282003 23.7815 0.817755C24.7215 1.3535 25.5064 2.12486 26.0594 3.05619L35.3805 18.76L42.9999 31.2666H33.9979C32.9283 31.2666 31.8767 30.9911 30.9439 30.4666C30.0112 29.9421 29.2286 29.1861 28.6714 28.2713Z" fill="white"/>
</svg>
