<svg width="43" height="32" viewBox="0 0 43 32" fill="none" xmlns="http://www.w3.org/2000/svg">
<path fill-rule="evenodd" clip-rule="evenodd" d="M28.6714 2.99533L22.8768 12.5066H0.40918L9.91935 28.2515C10.4754 29.172 11.259 29.9331 12.1945 30.4612C13.1299 30.9894 14.1855 31.2668 15.2592 31.2665H20.6972C21.7786 31.2664 22.8414 30.9846 23.7815 30.4488C24.7215 29.9131 25.5064 29.1417 26.0594 28.2104L35.3805 12.5066L42.9999 6.80606e-10H33.9979C32.9283 -1.58107e-05 31.8767 0.275459 30.9439 0.799984C30.0112 1.32451 29.2286 2.08048 28.6714 2.99533Z" fill="#7380FF"/>
<path fill-rule="evenodd" clip-rule="evenodd" d="M28.6714 28.2711L22.8768 18.7599H0.40918L9.91935 3.01497C10.4754 2.09453 11.259 1.33342 12.1945 0.805256C13.1299 0.277086 14.1855 -0.000274658 15.2592 -9.53674e-06H20.6972C21.7786 0.000125885 22.8414 0.281881 23.7815 0.817633C24.7215 1.35338 25.5064 2.12474 26.0594 3.05607L35.3805 18.7599L42.9999 31.2665H33.9979C32.9283 31.2665 31.8767 30.991 30.9439 30.4665C30.0112 29.942 29.2286 29.186 28.6714 28.2711Z" fill="#7380FF"/>
</svg>
